<svg width="35" height="40" viewBox="0 0 721 768" fill="none" xmlns="http://www.w3.org/2000/svg">
                <path fill-rule="evenodd" clip-rule="evenodd" d="M721 0H0V768H721V0ZM680.5 42H45.5V724H680.5V42Z" fill="currentColor"></path>
                <path d="M646 348.133V388.155H450.157V615.165L459.264 615.818C502.415 618.912 545.737 618.705 588.849 615.201L605.228 521.779L644.698 528.682L627.098 629.069C624.689 642.805 613.352 653.217 599.446 654.463C551.874 658.727 504.036 659.153 456.395 655.737L437.233 654.363C421.936 653.266 410.087 640.551 410.087 625.233V388.155H296.22C303.074 490.657 245.092 605.581 99.1498 661L84.9099 623.59C215.859 573.864 262.857 473.653 256.032 388.155H75V348.133H247.442C245.994 344.505 244.228 340.133 242.237 335.303C236.596 321.62 229.28 304.588 222.309 290.424C215.676 276.946 203.437 257.518 192.348 240.812C186.9 232.604 181.892 225.293 178.247 220.035C176.425 217.408 174.948 215.299 173.93 213.853C173.421 213.13 173.027 212.573 172.763 212.2L206.711 190.836C207.776 192.351 209.308 194.537 211.188 197.249C214.946 202.669 220.112 210.21 225.746 218.698C236.822 235.385 250.377 256.731 258.27 272.769C265.825 288.121 273.535 306.108 279.289 320.065C283.105 329.322 286.817 338.676 290.11 348.133H339.463V107H392.055C392.055 110.199 387.139 114.217 379.533 116.829V348.133H430.101C430.937 346.807 431.911 345.257 433.304 343.03C438.473 334.761 445.675 323.063 454.108 308.524C470.99 279.416 492.754 239 512.889 192.157L561.352 213.058C560.077 216.06 554.07 217.543 545.819 216.878C526.009 261.776 505.134 300.388 488.781 328.585C484.595 335.803 480.702 342.342 477.197 348.133H646Z" fill="currentColor"></path>
              </svg>